<svg width="167" height="60" viewBox="0 0 167 60" fill="none" xmlns="http://www.w3.org/2000/svg">
<path d="M112.492 37.7123L115.429 45.8803H113.779L113.305 44.4349H110.458L109.972 45.8803H108.323L111.26 37.7123H112.492ZM111.882 40.1329L110.887 43.0927H112.864L111.882 40.1329Z" fill="white"/>
<path d="M121.707 37.7123V39.1348H117.979V41.1425H121.165V42.5649H117.979V45.8803H116.409V37.7123H121.707Z" fill="white"/>
<path d="M124.642 37.7123V45.8803H123.072V37.7123H124.642Z" fill="white"/>
<path d="M128.096 37.7123V44.4579H131.745V45.8803H126.525V37.7123H128.096Z" fill="white"/>
<path d="M134.594 37.7123V45.8803H133.024V37.7123H134.594Z" fill="white"/>
<path d="M139.753 37.7123L142.69 45.8803H141.041L140.566 44.4349H137.719L137.234 45.8803H135.584L138.522 37.7123H139.753ZM139.143 40.1329L138.149 43.0927H140.126L139.143 40.1329Z" fill="white"/>
<path d="M143.67 37.7123H146.573C147.628 37.7123 148.438 38.11 149.002 38.9054C149.228 39.2266 149.368 39.59 149.42 39.9953C149.481 40.3929 149.511 40.9933 149.511 41.7964C149.511 42.5994 149.481 43.2036 149.42 43.6089C149.368 44.0067 149.228 44.3661 149.002 44.6873C148.438 45.4827 147.628 45.8803 146.573 45.8803H143.67V37.7123ZM146.438 39.1348H145.24V44.4579H146.438C146.958 44.4579 147.349 44.2896 147.613 43.953C147.756 43.7848 147.846 43.5554 147.884 43.2648C147.921 42.9742 147.94 42.4847 147.94 41.7964C147.94 41.108 147.921 40.6185 147.884 40.3279C147.846 40.0373 147.756 39.8079 147.613 39.6397C147.349 39.3032 146.958 39.1348 146.438 39.1348Z" fill="white"/>
<path d="M151.659 38.5038C152.239 37.9303 152.958 37.6434 153.817 37.6434C154.676 37.6434 155.395 37.9303 155.975 38.5038C156.344 38.8709 156.57 39.2801 156.653 39.7313C156.743 40.1826 156.789 40.8709 156.789 41.7963C156.789 42.7217 156.743 43.4101 156.653 43.8613C156.57 44.3125 156.344 44.7217 155.975 45.0888C155.395 45.6623 154.676 45.9492 153.817 45.9492C152.958 45.9492 152.239 45.6623 151.659 45.0888C151.29 44.7139 151.06 44.3048 150.97 43.8613C150.887 43.4101 150.846 42.7217 150.846 41.7963C150.846 40.8709 150.887 40.1863 150.97 39.7428C151.06 39.2916 151.29 38.8787 151.659 38.5038ZM154.823 39.5019C154.574 39.2113 154.239 39.066 153.817 39.066C153.395 39.066 153.06 39.2113 152.812 39.5019C152.653 39.6778 152.548 39.915 152.495 40.2132C152.442 40.5038 152.416 41.0316 152.416 41.7963C152.416 42.5535 152.442 43.0811 152.495 43.3794C152.548 43.6701 152.653 43.9033 152.812 44.0792C153.068 44.3775 153.403 44.5266 153.817 44.5266C154.231 44.5266 154.566 44.3775 154.823 44.0792C154.981 43.9033 155.086 43.6701 155.139 43.3794C155.192 43.0811 155.218 42.5535 155.218 41.7963C155.218 41.0316 155.192 40.5038 155.139 40.2132C155.086 39.915 154.981 39.6778 154.823 39.5019Z" fill="white"/>
<path d="M160.782 37.6434C161.866 37.6434 162.733 37.9609 163.381 38.5956L162.386 39.5937C162.018 39.219 161.468 39.0316 160.738 39.0316C160.337 39.0316 160.03 39.131 159.811 39.3298C159.599 39.521 159.494 39.7657 159.494 40.0641C159.494 40.3012 159.574 40.4962 159.732 40.6491C159.905 40.8097 160.149 40.9129 160.467 40.9588L161.426 41.1079C162.112 41.2075 162.623 41.4216 162.963 41.7504C163.377 42.1481 163.585 42.7217 163.585 43.4713C163.585 44.2436 163.306 44.8517 162.748 45.2952C162.191 45.7311 161.476 45.9492 160.602 45.9492C159.961 45.9492 159.408 45.8689 158.941 45.7082C158.474 45.5399 158.048 45.2608 157.664 44.8708L158.681 43.8383C159.132 44.2972 159.776 44.5266 160.613 44.5266C161.08 44.5266 161.434 44.4386 161.675 44.2627C161.924 44.0869 162.048 43.8345 162.048 43.5057C162.048 43.2226 161.965 42.997 161.799 42.8288C161.656 42.6988 161.415 42.607 161.076 42.5535L160.116 42.4044C159.43 42.2972 158.911 42.0716 158.557 41.7275C158.173 41.3451 157.981 40.8097 157.981 40.1213C157.981 39.3796 158.233 38.7831 158.737 38.3318C159.242 37.8728 159.925 37.6434 160.782 37.6434Z" fill="white"/>
<path fill-rule="evenodd" clip-rule="evenodd" d="M59.1138 26.1467L57.5212 26.5909C56.4119 27.0342 55.419 27.7999 54.582 28.9646V26.8305L50.6505 26.793V43.549H54.7415V35.5336C54.7415 34.1622 54.9018 33.1973 55.2609 32.591C55.5362 31.9493 56.0527 31.4247 56.6902 30.9821C57.4041 30.4968 58.1579 30.2548 58.955 30.2548L60.2232 30.3383L60.1854 26.0648L59.1138 26.1467ZM27.0965 43.5476H31.2276V21.7171H27.0965V43.5476ZM43.5408 35.0105L42.7475 35.4495L40.6823 35.9739C39.8066 36.0949 39.1336 36.2963 38.7352 36.5375C38.0622 36.9809 37.7416 37.588 37.7416 38.4326C37.7416 39.1975 37.9434 39.7191 38.3381 40.0842C38.7352 40.4027 39.2123 40.5651 39.8066 40.5651C40.7611 40.5651 41.5951 40.2825 42.3906 39.7189C43.143 39.1555 43.5408 38.1478 43.5408 36.7005V35.0105ZM47.8744 31.2212V43.5482H43.7397V41.8147C42.4677 42.9426 40.6823 43.507 38.4197 43.5482C37.0261 43.507 35.8752 43.1064 35.0405 42.3799C34.0899 41.4939 33.6142 40.2825 33.6528 38.797C33.6142 36.6585 34.3666 35.1699 35.9145 34.2434C36.8302 33.7174 38.0198 33.3575 39.4883 33.1538L42.6681 32.6331C43.3018 32.352 43.6201 31.905 43.6201 31.3436C43.5801 30.659 43.3812 30.1745 42.9055 29.9332C42.43 29.6499 41.7553 29.4869 40.8827 29.5296C39.8474 29.4869 39.1336 29.7717 38.6966 30.3383C38.4197 30.659 38.1785 31.1437 38.1022 31.8681H33.9689C34.0899 30.3383 34.4474 29.1262 35.1607 28.2012C36.2729 26.7111 38.2193 25.9438 41.0006 25.986C42.7875 25.9438 44.3748 26.3091 45.8048 27.074C47.1539 27.7991 47.8744 29.2073 47.8744 31.2212ZM14.7835 25.8665C16.0561 25.8665 17.2071 26.2272 18.3195 26.9538C19.3131 27.6391 20.1078 28.6047 20.6637 29.7318H24.9921C24.3568 27.3971 23.125 25.4623 21.2572 23.9752C19.3539 22.4423 17.1685 21.6773 14.7835 21.7171C11.807 21.6773 9.34113 22.7241 7.27672 24.8979C5.17221 27.0334 4.14148 29.5696 4.14148 32.591C4.14148 35.5703 5.17221 38.1921 7.27672 40.3254C9.34113 42.4174 11.807 43.4671 14.7835 43.4671C17.1685 43.4671 19.3539 42.7405 21.2572 41.2497C23.125 39.7189 24.3568 37.8276 24.9921 35.4914H20.6637C20.1078 36.6202 19.3131 37.5429 18.3195 38.2696C17.2071 38.957 16.0561 39.3185 14.7835 39.3185C12.9573 39.3185 11.4093 38.6333 10.1359 37.3415C8.82838 36.0145 8.19167 34.4469 8.23027 32.591C8.19167 30.7403 8.82838 29.1675 10.1359 27.8405C11.4093 26.5511 12.9573 25.8665 14.7835 25.8665ZM73.7304 34.8468C73.6887 33.5191 73.2524 32.4294 72.4161 31.5443C71.5041 30.62 70.4325 30.1745 69.1606 30.2158C67.9302 30.1745 66.8572 30.62 65.9846 31.5443C65.1089 32.4294 64.6318 33.5191 64.6318 34.8468C64.6318 36.0949 65.1089 37.183 65.9846 38.1102C66.8572 39.0389 67.9302 39.4771 69.1606 39.4771C70.4325 39.4771 71.5041 39.0389 72.3776 38.1102C73.2524 37.183 73.6887 36.0949 73.7304 34.8468ZM75.2767 28.6047C76.9456 30.3383 77.7804 32.4294 77.7804 34.8468C77.7804 37.2633 76.9456 39.3568 75.2767 41.049C73.5692 42.7825 71.5041 43.6662 69.1606 43.6662C66.818 43.6662 64.7899 42.7825 63.1239 41.049C61.4135 39.3568 60.5815 37.2633 60.5815 34.8468C60.5815 32.4294 61.4135 30.3383 63.1239 28.6047C64.7899 26.8741 66.818 26.0251 69.1606 26.0251C71.5041 26.0251 73.5692 26.8741 75.2767 28.6047ZM80.325 34.6049H91.2497V30.8597H80.325V34.6049ZM67.8116 22.6422H71.5056V11.8036H67.8116V22.6422ZM88.47 16.5593L78.4959 26.6698L75.8756 24.0104L85.8468 13.9031L88.47 16.5593Z" fill="white"/>
</svg>
